<!DOCTYPE svg PUBLIC "-//W3C//DTD SVG 1.1//EN" "http://www.w3.org/Graphics/SVG/1.1/DTD/svg11.dtd">
<svg xmlns="http://www.w3.org/2000/svg" xmlns:xlink="http://www.w3.org/1999/xlink" xmlns:jfreesvg="http://www.jfree.org/jfreesvg/svg" width="490" height="290" text-rendering="auto" shape-rendering="auto">
<defs></defs>
<rect x="0" y="0" width="490" height="290" style="fill: rgb(255,255,255); fill-opacity: 1.0" /><rect x="10" y="170" width="70" height="30" style="fill: rgb(255,255,255); fill-opacity: 1.0" /><line x1="10" y1="170" x2="79" y2="170" style="stroke-width: 1.0;stroke: rgb(0,0,0);stroke-opacity: 1.0;stroke-linecap: square;" /><line x1="80" y1="170" x2="80" y2="199" style="stroke-width: 1.0;stroke: rgb(0,0,0);stroke-opacity: 1.0;stroke-linecap: square;" /><line x1="80" y1="200" x2="11" y2="200" style="stroke-width: 1.0;stroke: rgb(0,0,0);stroke-opacity: 1.0;stroke-linecap: square;" /><line x1="10" y1="200" x2="10" y2="171" style="stroke-width: 1.0;stroke: rgb(0,0,0);stroke-opacity: 1.0;stroke-linecap: square;" /><g ><text x="40" y="192" style="fill: rgb(0,0,0); fill-opacity: 1.0; font-family: Microsoft Sans Serif; font-size: 20px;" >4</text></g><rect x="90" y="170" width="70" height="30" style="fill: rgb(255,255,255); fill-opacity: 1.0" /><line x1="90" y1="170" x2="159" y2="170" style="stroke-width: 1.0;stroke: rgb(0,0,0);stroke-opacity: 1.0;stroke-linecap: square;" /><line x1="160" y1="170" x2="160" y2="199" style="stroke-width: 1.0;stroke: rgb(0,0,0);stroke-opacity: 1.0;stroke-linecap: square;" /><line x1="160" y1="200" x2="91" y2="200" style="stroke-width: 1.0;stroke: rgb(0,0,0);stroke-opacity: 1.0;stroke-linecap: square;" /><line x1="90" y1="200" x2="90" y2="171" style="stroke-width: 1.0;stroke: rgb(0,0,0);stroke-opacity: 1.0;stroke-linecap: square;" /><g ><text x="114" y="192" style="fill: rgb(0,0,0); fill-opacity: 1.0; font-family: Microsoft Sans Serif; font-size: 20px;" >34</text></g><rect x="50" y="90" width="70" height="30" style="fill: rgb(255,255,255); fill-opacity: 1.0" /><line x1="85" y1="120" x2="45" y2="170" style="stroke-width: 1.0;stroke: rgb(0,0,0);stroke-opacity: 1.0;stroke-linecap: square;" /><line x1="85" y1="120" x2="125" y2="170" style="stroke-width: 1.0;stroke: rgb(0,0,0);stroke-opacity: 1.0;stroke-linecap: square;" /><line x1="50" y1="90" x2="119" y2="90" style="stroke-width: 1.0;stroke: rgb(0,0,0);stroke-opacity: 1.0;stroke-linecap: square;" /><line x1="120" y1="90" x2="120" y2="119" style="stroke-width: 1.0;stroke: rgb(0,0,0);stroke-opacity: 1.0;stroke-linecap: square;" /><line x1="120" y1="120" x2="51" y2="120" style="stroke-width: 1.0;stroke: rgb(0,0,0);stroke-opacity: 1.0;stroke-linecap: square;" /><line x1="50" y1="120" x2="50" y2="91" style="stroke-width: 1.0;stroke: rgb(0,0,0);stroke-opacity: 1.0;stroke-linecap: square;" /><g ><text x="74" y="112" style="fill: rgb(0,0,0); fill-opacity: 1.0; font-family: Microsoft Sans Serif; font-size: 20px;" >32</text></g><rect x="170" y="250" width="70" height="30" style="fill: rgb(255,255,255); fill-opacity: 1.0" /><line x1="170" y1="250" x2="239" y2="250" style="stroke-width: 1.0;stroke: rgb(0,0,0);stroke-opacity: 1.0;stroke-linecap: square;" /><line x1="240" y1="250" x2="240" y2="279" style="stroke-width: 1.0;stroke: rgb(0,0,0);stroke-opacity: 1.0;stroke-linecap: square;" /><line x1="240" y1="280" x2="171" y2="280" style="stroke-width: 1.0;stroke: rgb(0,0,0);stroke-opacity: 1.0;stroke-linecap: square;" /><line x1="170" y1="280" x2="170" y2="251" style="stroke-width: 1.0;stroke: rgb(0,0,0);stroke-opacity: 1.0;stroke-linecap: square;" /><g ><text x="194" y="272" style="fill: rgb(0,0,0); fill-opacity: 1.0; font-family: Microsoft Sans Serif; font-size: 20px;" >66</text></g><rect x="250" y="250" width="70" height="30" style="fill: rgb(255,255,255); fill-opacity: 1.0" /><line x1="250" y1="250" x2="319" y2="250" style="stroke-width: 1.0;stroke: rgb(0,0,0);stroke-opacity: 1.0;stroke-linecap: square;" /><line x1="320" y1="250" x2="320" y2="279" style="stroke-width: 1.0;stroke: rgb(0,0,0);stroke-opacity: 1.0;stroke-linecap: square;" /><line x1="320" y1="280" x2="251" y2="280" style="stroke-width: 1.0;stroke: rgb(0,0,0);stroke-opacity: 1.0;stroke-linecap: square;" /><line x1="250" y1="280" x2="250" y2="251" style="stroke-width: 1.0;stroke: rgb(0,0,0);stroke-opacity: 1.0;stroke-linecap: square;" /><g ><text x="274" y="272" style="fill: rgb(0,0,0); fill-opacity: 1.0; font-family: Microsoft Sans Serif; font-size: 20px;" >69</text></g><rect x="210" y="170" width="70" height="30" style="fill: rgb(255,255,255); fill-opacity: 1.0" /><line x1="245" y1="200" x2="205" y2="250" style="stroke-width: 1.0;stroke: rgb(0,0,0);stroke-opacity: 1.0;stroke-linecap: square;" /><line x1="245" y1="200" x2="285" y2="250" style="stroke-width: 1.0;stroke: rgb(0,0,0);stroke-opacity: 1.0;stroke-linecap: square;" /><line x1="210" y1="170" x2="279" y2="170" style="stroke-width: 1.0;stroke: rgb(0,0,0);stroke-opacity: 1.0;stroke-linecap: square;" /><line x1="280" y1="170" x2="280" y2="199" style="stroke-width: 1.0;stroke: rgb(0,0,0);stroke-opacity: 1.0;stroke-linecap: square;" /><line x1="280" y1="200" x2="211" y2="200" style="stroke-width: 1.0;stroke: rgb(0,0,0);stroke-opacity: 1.0;stroke-linecap: square;" /><line x1="210" y1="200" x2="210" y2="171" style="stroke-width: 1.0;stroke: rgb(0,0,0);stroke-opacity: 1.0;stroke-linecap: square;" /><g ><text x="234" y="192" style="fill: rgb(0,0,0); fill-opacity: 1.0; font-family: Microsoft Sans Serif; font-size: 20px;" >68</text></g><rect x="330" y="250" width="70" height="30" style="fill: rgb(255,255,255); fill-opacity: 1.0" /><line x1="330" y1="250" x2="399" y2="250" style="stroke-width: 1.0;stroke: rgb(0,0,0);stroke-opacity: 1.0;stroke-linecap: square;" /><line x1="400" y1="250" x2="400" y2="279" style="stroke-width: 1.0;stroke: rgb(0,0,0);stroke-opacity: 1.0;stroke-linecap: square;" /><line x1="400" y1="280" x2="331" y2="280" style="stroke-width: 1.0;stroke: rgb(0,0,0);stroke-opacity: 1.0;stroke-linecap: square;" /><line x1="330" y1="280" x2="330" y2="251" style="stroke-width: 1.0;stroke: rgb(0,0,0);stroke-opacity: 1.0;stroke-linecap: square;" /><g ><text x="354" y="272" style="fill: rgb(0,0,0); fill-opacity: 1.0; font-family: Microsoft Sans Serif; font-size: 20px;" >76</text></g><rect x="410" y="250" width="70" height="30" style="fill: rgb(255,255,255); fill-opacity: 1.0" /><line x1="410" y1="250" x2="479" y2="250" style="stroke-width: 1.0;stroke: rgb(0,0,0);stroke-opacity: 1.0;stroke-linecap: square;" /><line x1="480" y1="250" x2="480" y2="279" style="stroke-width: 1.0;stroke: rgb(0,0,0);stroke-opacity: 1.0;stroke-linecap: square;" /><line x1="480" y1="280" x2="411" y2="280" style="stroke-width: 1.0;stroke: rgb(0,0,0);stroke-opacity: 1.0;stroke-linecap: square;" /><line x1="410" y1="280" x2="410" y2="251" style="stroke-width: 1.0;stroke: rgb(0,0,0);stroke-opacity: 1.0;stroke-linecap: square;" /><g ><text x="434" y="272" style="fill: rgb(0,0,0); fill-opacity: 1.0; font-family: Microsoft Sans Serif; font-size: 20px;" >92</text></g><rect x="370" y="170" width="70" height="30" style="fill: rgb(255,255,255); fill-opacity: 1.0" /><line x1="405" y1="200" x2="365" y2="250" style="stroke-width: 1.0;stroke: rgb(0,0,0);stroke-opacity: 1.0;stroke-linecap: square;" /><line x1="405" y1="200" x2="445" y2="250" style="stroke-width: 1.0;stroke: rgb(0,0,0);stroke-opacity: 1.0;stroke-linecap: square;" /><line x1="370" y1="170" x2="439" y2="170" style="stroke-width: 1.0;stroke: rgb(0,0,0);stroke-opacity: 1.0;stroke-linecap: square;" /><line x1="440" y1="170" x2="440" y2="199" style="stroke-width: 1.0;stroke: rgb(0,0,0);stroke-opacity: 1.0;stroke-linecap: square;" /><line x1="440" y1="200" x2="371" y2="200" style="stroke-width: 1.0;stroke: rgb(0,0,0);stroke-opacity: 1.0;stroke-linecap: square;" /><line x1="370" y1="200" x2="370" y2="171" style="stroke-width: 1.0;stroke: rgb(0,0,0);stroke-opacity: 1.0;stroke-linecap: square;" /><g ><text x="394" y="192" style="fill: rgb(0,0,0); fill-opacity: 1.0; font-family: Microsoft Sans Serif; font-size: 20px;" >88</text></g><rect x="290" y="90" width="70" height="30" style="fill: rgb(255,255,255); fill-opacity: 1.0" /><line x1="325" y1="120" x2="245" y2="170" style="stroke-width: 1.0;stroke: rgb(0,0,0);stroke-opacity: 1.0;stroke-linecap: square;" /><line x1="325" y1="120" x2="405" y2="170" style="stroke-width: 1.0;stroke: rgb(0,0,0);stroke-opacity: 1.0;stroke-linecap: square;" /><line x1="290" y1="90" x2="359" y2="90" style="stroke-width: 1.0;stroke: rgb(0,0,0);stroke-opacity: 1.0;stroke-linecap: square;" /><line x1="360" y1="90" x2="360" y2="119" style="stroke-width: 1.0;stroke: rgb(0,0,0);stroke-opacity: 1.0;stroke-linecap: square;" /><line x1="360" y1="120" x2="291" y2="120" style="stroke-width: 1.0;stroke: rgb(0,0,0);stroke-opacity: 1.0;stroke-linecap: square;" /><line x1="290" y1="120" x2="290" y2="91" style="stroke-width: 1.0;stroke: rgb(0,0,0);stroke-opacity: 1.0;stroke-linecap: square;" /><g ><text x="314" y="112" style="fill: rgb(0,0,0); fill-opacity: 1.0; font-family: Microsoft Sans Serif; font-size: 20px;" >70</text></g><rect x="170" y="10" width="70" height="30" style="fill: rgb(255,255,255); fill-opacity: 1.0" /><line x1="205" y1="40" x2="85" y2="90" style="stroke-width: 1.0;stroke: rgb(0,0,0);stroke-opacity: 1.0;stroke-linecap: square;" /><line x1="205" y1="40" x2="325" y2="90" style="stroke-width: 1.0;stroke: rgb(0,0,0);stroke-opacity: 1.0;stroke-linecap: square;" /><line x1="170" y1="10" x2="239" y2="10" style="stroke-width: 1.0;stroke: rgb(0,0,0);stroke-opacity: 1.0;stroke-linecap: square;" /><line x1="240" y1="10" x2="240" y2="39" style="stroke-width: 1.0;stroke: rgb(0,0,0);stroke-opacity: 1.0;stroke-linecap: square;" /><line x1="240" y1="40" x2="171" y2="40" style="stroke-width: 1.0;stroke: rgb(0,0,0);stroke-opacity: 1.0;stroke-linecap: square;" /><line x1="170" y1="40" x2="170" y2="11" style="stroke-width: 1.0;stroke: rgb(0,0,0);stroke-opacity: 1.0;stroke-linecap: square;" /><g ><text x="194" y="32" style="fill: rgb(0,0,0); fill-opacity: 1.0; font-family: Microsoft Sans Serif; font-size: 20px;" >41</text></g></svg>
